<svg width="24" height="25" viewBox="0 0 24 25" fill="none" xmlns="http://www.w3.org/2000/svg">
<path d="M6.03746 18.6876C5.84996 18.6501 5.69996 18.6126 5.51246 18.5376C5.32496 18.4626 5.17496 18.4251 5.02496 18.3501C4.68746 18.2001 4.38746 18.0126 4.08746 17.7876C3.48746 17.3751 2.99996 16.8126 2.62496 16.1376C2.24996 15.5001 2.02496 14.7501 1.98746 14.0376C1.94996 13.6626 1.98746 13.3251 2.02496 12.9501C2.06246 12.7626 2.09996 12.6126 2.13746 12.4251C2.17496 12.2376 2.24996 12.0876 2.28746 11.9001L2.32496 12.4251C2.32496 12.6126 2.36246 12.7626 2.39996 12.9501C2.43746 13.2876 2.51246 13.6251 2.58746 13.9251C2.73746 14.5626 2.96246 15.1626 3.29996 15.7251C3.63746 16.2876 4.01246 16.8126 4.49996 17.3001C4.72496 17.5251 4.98746 17.7501 5.24996 17.9751C5.36246 18.0876 5.51246 18.2001 5.66246 18.3126L6.03746 18.6876Z" fill="#42ADE2"/>
<path d="M5.925 20.0376C5.8125 20.1126 5.6625 20.1501 5.5125 20.1876C5.3625 20.2251 5.25 20.2626 5.1 20.2626C4.8375 20.3001 4.5375 20.3376 4.2375 20.3001C3.675 20.2626 3.075 20.1126 2.5875 19.8501C2.0625 19.5876 1.6125 19.1751 1.3125 18.6876C1.1625 18.4626 1.0125 18.2001 0.9 17.9376C0.8625 17.8251 0.825 17.6751 0.7875 17.5251C0.7875 17.4126 0.75 17.3001 0.75 17.1501C0.8625 17.2626 0.9375 17.3751 1.0125 17.4501C1.125 17.5626 1.2 17.6751 1.275 17.7501C1.4625 17.9376 1.6125 18.1251 1.8 18.2751C2.175 18.6126 2.55 18.9126 3 19.1376C3.4125 19.3626 3.9 19.5501 4.35 19.7001C4.575 19.7751 4.8375 19.8126 5.1 19.8876C5.2125 19.9251 5.3625 19.9251 5.475 19.9626C5.6625 20.0001 5.775 20.0001 5.925 20.0376Z" fill="#42ADE2"/>
<path d="M14.3999 1.8125C14.5874 1.85 14.7374 1.925 14.9249 2C15.1124 2.075 15.2624 2.15 15.4124 2.225C15.7499 2.4125 16.0499 2.6 16.3499 2.825C16.9499 3.275 17.4374 3.875 17.7749 4.55C18.1124 5.225 18.2999 5.975 18.2999 6.6875C18.2999 7.0625 18.2624 7.4 18.1874 7.775C18.1499 7.9625 18.1124 8.1125 18.0374 8.3C17.9624 8.4875 17.9249 8.6375 17.8499 8.7875L17.8124 8.2625C17.8124 8.075 17.8124 7.925 17.7749 7.7375L17.6624 6.725C17.5499 6.0875 17.3249 5.45 17.0249 4.85C16.7249 4.25 16.3499 3.725 15.8999 3.2375C15.6749 2.975 15.4124 2.75 15.1874 2.4875C15.0749 2.375 14.9249 2.2625 14.7749 2.15L14.3999 1.8125Z" fill="#42ADE2"/>
<path d="M17.6626 1.6626C17.8126 1.7001 17.9251 1.7376 18.0376 1.8126C18.1501 1.8501 18.3001 1.9251 18.4126 2.0001C18.6376 2.1501 18.8626 2.3001 19.0876 2.4876C19.5001 2.8626 19.8376 3.3126 20.0251 3.8376C20.2501 4.3626 20.3251 4.9251 20.2501 5.4876C20.2126 5.7501 20.1376 6.0126 20.0626 6.2751C20.0251 6.3876 19.9501 6.5376 19.9126 6.6501C19.8376 6.7626 19.8001 6.8751 19.6876 6.9876V6.2376C19.6876 5.9751 19.6501 5.7501 19.6501 5.5251C19.5751 5.0376 19.5001 4.5876 19.3126 4.1751C19.1251 3.7251 18.9001 3.3501 18.6376 2.9376C18.4876 2.7501 18.3376 2.5251 18.1876 2.3376C18.1126 2.2251 18.0376 2.1501 17.9251 2.0376C17.8501 1.8501 17.7376 1.7376 17.6626 1.6626Z" fill="#42ADE2"/>
<path d="M3.74992 7.24995C2.99992 7.58745 2.73742 8.48745 3.07492 9.23745L7.79992 19.1L10.4249 17.8625L5.69992 7.96245C5.36242 7.21245 4.49992 6.87495 3.74992 7.24995Z" fill="#FFDD67"/>
<path d="M16.1624 15.0875L18.9374 13.775L13.5374 2.52495C13.1624 1.77495 12.2624 1.43745 11.4749 1.81245C10.7249 2.18745 10.3874 3.08745 10.7624 3.87495L16.1624 15.0875Z" fill="#FFDD67"/>
<path d="M11.5126 1.77502C11.4376 1.81252 11.3626 1.85002 11.2876 1.92502C12.0001 1.73752 12.7501 2.07502 13.0876 2.75002L18.4876 14L18.9751 13.775L13.5751 2.52502C13.2001 1.73752 12.3001 1.40002 11.5126 1.77502Z" fill="#EBA352"/>
<path d="M10.425 17.825L13.3125 16.4375L7.79997 4.96247C7.42497 4.17497 6.44997 3.79997 5.66247 4.17497C4.87497 4.54997 4.53747 5.52497 4.91247 6.31247L10.425 17.825Z" fill="#FFDD67"/>
<path d="M5.6625 4.21246C5.5875 4.24996 5.5125 4.28746 5.4375 4.36246C6.15 4.17496 6.975 4.51246 7.3125 5.22496L10.725 12.3875L11.55 12.875L7.8 4.99996C7.425 4.17496 6.4875 3.83746 5.6625 4.21246Z" fill="#EBA352"/>
<path d="M12.8625 15.5374L15.75 14.1499L10.2375 2.67488C9.86247 1.88738 8.88747 1.51238 8.09997 1.92488C7.31247 2.29988 6.97497 3.27488 7.34997 4.06238L12.8625 15.5374Z" fill="#FFDD67"/>
<path d="M8.1 1.88751C8.025 1.92501 7.95 2.00001 7.875 2.03751C8.5875 1.85001 9.4125 2.18751 9.75 2.90001L13.6125 11L14.4375 11.4875L10.2375 2.67501C9.8625 1.85001 8.8875 1.51251 8.1 1.88751Z" fill="#EBA352"/>
<path d="M3.7499 7.25012C3.6749 7.28762 3.5999 7.32512 3.5249 7.40012C4.1999 7.21262 4.9124 7.55012 5.2124 8.22512L8.0249 14.1126L8.8499 14.6001L5.6999 8.00012C5.3624 7.21262 4.4999 6.87512 3.7499 7.25012Z" fill="#EBA352"/>
<path d="M22.8 6.12509C21.7875 5.33759 20.1375 6.20009 19.3125 8.90009C18.75 10.7751 18.675 11.3376 17.475 11.9001L16.8 10.5126C16.8 10.5126 6.14996 15.6501 6.56246 16.4751C6.56246 16.4751 7.83746 20.4501 10.0125 22.2876C13.2375 25.0626 20.775 22.1001 21.1125 14.9376C21.3 10.7751 23.8875 6.98759 22.8 6.12509Z" fill="#FFDD67"/>
<path d="M22.7999 6.12505C22.6124 5.97505 22.3874 5.90005 22.1624 5.86255C22.1999 5.90005 22.2749 5.90005 22.3124 5.93755C23.4374 6.80005 22.2749 8.78755 21.6374 10.5875C21.1124 12.0125 20.6624 13.4751 20.7374 14.9001C21.0374 21.1251 14.7749 24.0876 11.0249 22.9626C14.6999 24.5001 21.5249 21.5751 21.2249 15.0876C21.1499 13.6626 21.5624 12.275 22.1249 10.775C22.7249 8.97505 23.8874 6.98755 22.7999 6.12505Z" fill="#EBA352"/>
<path d="M17.8125 11.75C15.4875 12.0125 12.075 15.35 14.475 18.9875C12.7125 15.3125 15.6 12.8375 17.4375 11.975C17.625 11.825 17.8125 11.75 17.8125 11.75Z" fill="#EBA352"/>
</svg>
